<svg width="55" height="55" viewBox="0 0 55 55" fill="none" xmlns="http://www.w3.org/2000/svg">
<path opacity="0.4" d="M24.6355 6.06619C26.2396 4.75759 28.8292 4.75759 30.3876 6.06619L34.0084 9.06043C34.6959 9.61492 36.0021 10.0807 36.9188 10.0807H40.8146C43.2438 10.0807 45.2376 12.0103 45.2376 14.3614V18.1319C45.2376 19.0191 45.7188 20.2611 46.2917 20.9265L49.3855 24.4309C50.7376 25.9835 50.7376 28.4898 49.3855 29.998L46.2917 33.5024C45.7188 34.1678 45.2376 35.4098 45.2376 36.297V40.0675C45.2376 42.4186 43.2438 44.3482 40.8146 44.3482H36.9188C36.0021 44.3482 34.7188 44.814 34.0313 45.3685L30.4105 48.3627C28.8063 49.6713 26.2167 49.6713 24.6584 48.3627L21.0376 45.3685C20.3501 44.814 19.0438 44.3482 18.1501 44.3482H14.1396C11.7105 44.3482 9.71672 42.4186 9.71672 40.0675V36.2748C9.71672 35.4098 9.25839 34.1456 8.68547 33.5024L5.59172 29.9758C4.26256 28.4454 4.26256 25.9613 5.59172 24.4309L8.68547 20.9043C9.25839 20.239 9.71672 18.9969 9.71672 18.1319V14.3835C9.71672 12.0325 11.7105 10.1029 14.1396 10.1029H18.1042C19.0209 10.1029 20.3042 9.6371 20.9917 9.08261L24.6355 6.06619Z" fill="black"/>
<path opacity="0.4" d="M24.6355 6.11768C26.2396 4.79668 28.8292 4.79668 30.3876 6.11768L34.0084 9.14031C34.6959 9.70006 36.0021 10.1702 36.9188 10.1702H40.8146C43.2438 10.1702 45.2376 12.1182 45.2376 14.4915V18.2978C45.2376 19.1933 45.7188 20.4472 46.2917 21.1189L49.3855 24.6565C50.7376 26.2238 50.7376 28.7538 49.3855 30.2763L46.2917 33.8139C45.7188 34.4856 45.2376 35.7394 45.2376 36.635V40.4413C45.2376 42.8146 43.2438 44.7626 40.8146 44.7626H36.9188C36.0021 44.7626 34.7188 45.2327 34.0313 45.7925L30.4105 48.8151C28.8063 50.1361 26.2167 50.1361 24.6584 48.8151L21.0376 45.7925C20.3501 45.2327 19.0438 44.7626 18.1501 44.7626H14.1396C11.7105 44.7626 9.71672 42.8146 9.71672 40.4413V36.6126C9.71672 35.7394 9.25839 34.4632 8.68547 33.8139L5.59172 30.2539C4.26256 28.709 4.26256 26.2014 5.59172 24.6565L8.68547 21.0965C9.25839 20.4248 9.71672 19.171 9.71672 18.2978V14.5139C9.71672 12.1405 11.7105 10.1926 14.1396 10.1926H18.1042C19.0209 10.1926 20.3042 9.72245 20.9917 9.1627L24.6355 6.11768Z" fill="black"/>
<path opacity="0.4" d="M24.6355 6.11768C26.2396 4.79668 28.8292 4.79668 30.3876 6.11768L34.0084 9.14031C34.6959 9.70006 36.0021 10.1702 36.9188 10.1702H40.8146C43.2438 10.1702 45.2376 12.1182 45.2376 14.4915V18.2978C45.2376 19.1933 45.7188 20.4472 46.2917 21.1189L49.3855 24.6565C50.7376 26.2238 50.7376 28.7538 49.3855 30.2763L46.2917 33.8139C45.7188 34.4856 45.2376 35.7394 45.2376 36.635V40.4413C45.2376 42.8146 43.2438 44.7626 40.8146 44.7626H36.9188C36.0021 44.7626 34.7188 45.2327 34.0313 45.7925L30.4105 48.8151C28.8063 50.1361 26.2167 50.1361 24.6584 48.8151L21.0376 45.7925C20.3501 45.2327 19.0438 44.7626 18.1501 44.7626H14.1396C11.7105 44.7626 9.71672 42.8146 9.71672 40.4413V36.6126C9.71672 35.7394 9.25839 34.4632 8.68547 33.8139L5.59172 30.2539C4.26256 28.709 4.26256 26.2014 5.59172 24.6565L8.68547 21.0965C9.25839 20.4248 9.71672 19.171 9.71672 18.2978V14.5139C9.71672 12.1405 11.7105 10.1926 14.1396 10.1926H18.1042C19.0209 10.1926 20.3042 9.72245 20.9917 9.1627L24.6355 6.11768Z" fill="black"/>
<path opacity="0.4" d="M24.4406 5.91249C26.0448 4.60389 28.6344 4.60389 30.1927 5.91249L33.8136 8.90673C34.5011 9.46122 35.8073 9.927 36.724 9.927H40.6198C43.049 9.927 45.0427 11.8566 45.0427 14.2077V17.9782C45.0427 18.8654 45.524 20.1074 46.0969 20.7728L49.1907 24.2772C50.5427 25.8298 50.5427 28.3361 49.1907 29.8443L46.0969 33.3487C45.524 34.0141 45.0427 35.2561 45.0427 36.1433V39.9138C45.0427 42.2649 43.049 44.1945 40.6198 44.1945H36.724C35.8073 44.1945 34.524 44.6603 33.8365 45.2148L30.2157 48.209C28.6115 49.5176 26.0219 49.5176 24.4636 48.209L20.8427 45.2148C20.1552 44.6603 18.849 44.1945 17.9552 44.1945H13.9448C11.5157 44.1945 9.5219 42.2649 9.5219 39.9138V36.1211C9.5219 35.2561 9.06357 33.9919 8.49065 33.3487L5.3969 29.8221C4.06773 28.2917 4.06773 25.8076 5.3969 24.2772L8.49065 20.7506C9.06357 20.0853 9.5219 18.8432 9.5219 17.9782V14.2298C9.5219 11.8788 11.5157 9.94917 13.9448 9.94917H17.9094C18.8261 9.94917 20.1094 9.4834 20.7969 8.92891L24.4406 5.91249Z" fill="black"/>
<path opacity="0.4" d="M24.6355 6.06618C26.2396 4.75758 28.8292 4.75758 30.3876 6.06618L34.0084 9.06043C34.6959 9.61492 36.0021 10.0807 36.9188 10.0807H40.8146C43.2438 10.0807 45.2376 12.0103 45.2376 14.3614V18.1319C45.2376 19.0191 45.7188 20.2611 46.2917 20.9265L49.3855 24.4309C50.7376 25.9835 50.7376 28.4898 49.3855 29.998L46.2917 33.5024C45.7188 34.1677 45.2376 35.4098 45.2376 36.297V40.0675C45.2376 42.4186 43.2438 44.3482 40.8146 44.3482H36.9188C36.0021 44.3482 34.7188 44.814 34.0313 45.3685L30.4105 48.3627C28.8063 49.6713 26.2167 49.6713 24.6584 48.3627L21.0376 45.3685C20.3501 44.814 19.0438 44.3482 18.1501 44.3482H14.1396C11.7105 44.3482 9.71672 42.4186 9.71672 40.0675V36.2748C9.71672 35.4098 9.25839 34.1456 8.68547 33.5024L5.59172 29.9758C4.26256 28.4454 4.26256 25.9613 5.59172 24.4309L8.68547 20.9043C9.25839 20.239 9.71672 18.9969 9.71672 18.1319V14.3835C9.71672 12.0325 11.7105 10.1029 14.1396 10.1029H18.1042C19.0209 10.1029 20.3042 9.6371 20.9917 9.08261L24.6355 6.06618Z" fill="black"/>
<path opacity="0.4" d="M24.6355 6.11768C26.2396 4.79668 28.8292 4.79668 30.3876 6.11768L34.0084 9.14031C34.6959 9.70006 36.0021 10.1702 36.9188 10.1702H40.8146C43.2438 10.1702 45.2376 12.1182 45.2376 14.4915V18.2978C45.2376 19.1933 45.7188 20.4472 46.2917 21.1189L49.3855 24.6565C50.7376 26.2238 50.7376 28.7538 49.3855 30.2763L46.2917 33.8139C45.7188 34.4856 45.2376 35.7394 45.2376 36.635V40.4413C45.2376 42.8146 43.2438 44.7626 40.8146 44.7626H36.9188C36.0021 44.7626 34.7188 45.2327 34.0313 45.7925L30.4105 48.8151C28.8063 50.1361 26.2167 50.1361 24.6584 48.8151L21.0376 45.7925C20.3501 45.2327 19.0438 44.7626 18.1501 44.7626H14.1396C11.7105 44.7626 9.71672 42.8146 9.71672 40.4413V36.6126C9.71672 35.7394 9.25839 34.4632 8.68547 33.8139L5.59172 30.2539C4.26256 28.709 4.26256 26.2014 5.59172 24.6565L8.68547 21.0965C9.25839 20.4248 9.71672 19.171 9.71672 18.2978V14.5139C9.71672 12.1405 11.7105 10.1926 14.1396 10.1926H18.1042C19.0209 10.1926 20.3042 9.72245 20.9917 9.1627L24.6355 6.11768Z" fill="black"/>
<path opacity="0.4" d="M24.6355 6.11768C26.2396 4.79668 28.8292 4.79668 30.3876 6.11768L34.0084 9.14031C34.6959 9.70006 36.0021 10.1702 36.9188 10.1702H40.8146C43.2438 10.1702 45.2376 12.1182 45.2376 14.4915V18.2978C45.2376 19.1933 45.7188 20.4472 46.2917 21.1189L49.3855 24.6565C50.7376 26.2238 50.7376 28.7538 49.3855 30.2763L46.2917 33.8139C45.7188 34.4856 45.2376 35.7394 45.2376 36.635V40.4413C45.2376 42.8146 43.2438 44.7626 40.8146 44.7626H36.9188C36.0021 44.7626 34.7188 45.2327 34.0313 45.7925L30.4105 48.8151C28.8063 50.1361 26.2167 50.1361 24.6584 48.8151L21.0376 45.7925C20.3501 45.2327 19.0438 44.7626 18.1501 44.7626H14.1396C11.7105 44.7626 9.71672 42.8146 9.71672 40.4413V36.6126C9.71672 35.7394 9.25839 34.4632 8.68547 33.8139L5.59172 30.2539C4.26256 28.709 4.26256 26.2014 5.59172 24.6565L8.68547 21.0965C9.25839 20.4248 9.71672 19.171 9.71672 18.2978V14.5139C9.71672 12.1405 11.7105 10.1926 14.1396 10.1926H18.1042C19.0209 10.1926 20.3042 9.72245 20.9917 9.1627L24.6355 6.11768Z" fill="black"/>
<path opacity="0.4" d="M24.4406 5.91249C26.0448 4.60389 28.6344 4.60389 30.1927 5.91249L33.8136 8.90673C34.5011 9.46122 35.8073 9.927 36.724 9.927H40.6198C43.049 9.927 45.0427 11.8566 45.0427 14.2077V17.9782C45.0427 18.8654 45.524 20.1074 46.0969 20.7728L49.1907 24.2772C50.5427 25.8298 50.5427 28.3361 49.1907 29.8443L46.0969 33.3487C45.524 34.0141 45.0427 35.2561 45.0427 36.1433V39.9138C45.0427 42.2649 43.049 44.1945 40.6198 44.1945H36.724C35.8073 44.1945 34.524 44.6603 33.8365 45.2148L30.2157 48.209C28.6115 49.5176 26.0219 49.5176 24.4636 48.209L20.8427 45.2148C20.1552 44.6603 18.849 44.1945 17.9552 44.1945H13.9448C11.5157 44.1945 9.5219 42.2649 9.5219 39.9138V36.1211C9.5219 35.2561 9.06357 33.9919 8.49065 33.3487L5.3969 29.8221C4.06773 28.2917 4.06773 25.8076 5.3969 24.2772L8.49065 20.7506C9.06357 20.0853 9.5219 18.8432 9.5219 17.9782V14.2298C9.5219 11.8788 11.5157 9.94917 13.9448 9.94917H17.9094C18.8261 9.94917 20.1094 9.4834 20.7969 8.92891L24.4406 5.91249Z" fill="black"/>
<path d="M27.4999 38.4039C26.2395 38.4039 25.2083 37.3963 25.2083 36.1649C25.2083 34.9334 26.2166 33.9259 27.4999 33.9259C28.7603 33.9259 29.7916 34.9334 29.7916 36.1649C29.7916 37.3963 28.7833 38.4039 27.4999 38.4039Z" fill="white"/>
<path d="M27.4999 38.0492C26.2395 38.0492 25.2083 37.0511 25.2083 35.8312C25.2083 34.6113 26.2166 33.6133 27.4999 33.6133C28.7603 33.6133 29.7916 34.6113 29.7916 35.8312C29.7916 37.0511 28.7833 38.0492 27.4999 38.0492Z" fill="white"/>
<path d="M27.5 31.3511C26.5604 31.3511 25.7812 30.5898 25.7812 29.6718V18.8351C25.7812 17.9171 26.5604 17.1559 27.5 17.1559C28.4396 17.1559 29.2188 17.9171 29.2188 18.8351V29.6494C29.2188 30.5898 28.4625 31.3511 27.5 31.3511Z" fill="white"/>
<path d="M27.5 31.0626C26.5604 31.0626 25.7812 30.3085 25.7812 29.3991V18.6642C25.7812 17.7549 26.5604 17.0007 27.5 17.0007C28.4396 17.0007 29.2188 17.7549 29.2188 18.6642V29.377C29.2188 30.3085 28.4625 31.0626 27.5 31.0626Z" fill="white"/>
<path d="M27.4999 38.4039C26.2395 38.4039 25.2083 37.3963 25.2083 36.1649C25.2083 34.9334 26.2166 33.9259 27.4999 33.9259C28.7603 33.9259 29.7916 34.9334 29.7916 36.1649C29.7916 37.3963 28.7833 38.4039 27.4999 38.4039Z" fill="white"/>
<path d="M27.4999 38.0492C26.2395 38.0492 25.2083 37.0511 25.2083 35.8312C25.2083 34.6113 26.2166 33.6133 27.4999 33.6133C28.7603 33.6133 29.7916 34.6113 29.7916 35.8312C29.7916 37.0511 28.7833 38.0492 27.4999 38.0492Z" fill="white"/>
<path d="M27.5 31.3511C26.5604 31.3511 25.7812 30.5898 25.7812 29.6718V18.8351C25.7812 17.9171 26.5604 17.1559 27.5 17.1559C28.4396 17.1559 29.2188 17.9171 29.2188 18.8351V29.6494C29.2188 30.5898 28.4625 31.3511 27.5 31.3511Z" fill="white"/>
<path d="M27.5 31.0626C26.5604 31.0626 25.7812 30.3085 25.7812 29.3991V18.6642C25.7812 17.7549 26.5604 17.0007 27.5 17.0007C28.4396 17.0007 29.2188 17.7549 29.2188 18.6642V29.377C29.2188 30.3085 28.4625 31.0626 27.5 31.0626Z" fill="white"/>
</svg>
