<svg width="51" height="51" viewBox="0 0 51 51" fill="none" xmlns="http://www.w3.org/2000/svg">
<path opacity="0.4" d="M16.0305 43.574C15.968 43.574 15.8847 43.6157 15.8222 43.6157C11.7805 41.6157 8.48885 38.3032 6.46802 34.2615C6.46802 34.199 6.50968 34.1157 6.50968 34.0532C9.05135 34.8032 11.6764 35.3657 14.2805 35.8032C14.7389 38.4282 15.2805 41.0323 16.0305 43.574Z" fill="black"/>
<path opacity="0.4" d="M43.718 34.2823C41.6555 38.4282 38.218 41.7823 34.0305 43.8032C34.8222 41.1573 35.4889 38.4907 35.9264 35.8032C38.5514 35.3657 41.1347 34.8032 43.6763 34.0532C43.6555 34.1365 43.718 34.2198 43.718 34.2823Z" fill="black"/>
<path opacity="0.4" d="M43.8847 16.074C41.2597 15.2823 38.6139 14.6365 35.9264 14.1782C35.4889 11.4907 34.843 8.824 34.0305 6.21983C38.343 8.28233 41.8222 11.7615 43.8847 16.074Z" fill="black"/>
<path opacity="0.4" d="M16.0306 6.44901C15.2806 8.99067 14.7389 11.574 14.3014 14.199C11.6139 14.6157 8.94722 15.2823 6.30139 16.074C8.32222 11.8865 11.6764 8.44901 15.8222 6.38651C15.8847 6.38651 15.9681 6.44901 16.0306 6.44901Z" fill="black"/>
<path d="M32.3638 13.7407C27.5305 13.199 22.6555 13.199 17.8221 13.7407C18.343 10.8865 19.0096 8.03234 19.9471 5.28234C19.9888 5.11568 19.968 4.99068 19.9888 4.82401C21.6346 4.42818 23.3221 4.17818 25.093 4.17818C26.843 4.17818 28.5513 4.42818 30.1763 4.82401C30.1971 4.99068 30.1971 5.11568 30.2388 5.28234C31.1763 8.05318 31.843 10.8865 32.3638 13.7407Z" fill="black"/>
<path d="M13.8221 32.2823C10.9471 31.7615 8.11381 31.0948 5.36381 30.1573C5.19714 30.1157 5.07214 30.1365 4.90548 30.1157C4.50964 28.4698 4.25964 26.7823 4.25964 25.0115C4.25964 23.2615 4.50964 21.5532 4.90548 19.9282C5.07214 19.9073 5.19714 19.9073 5.36381 19.8657C8.13464 18.949 10.9471 18.2615 13.8221 17.7407C13.3013 22.574 13.3013 27.449 13.8221 32.2823Z" fill="black"/>
<path d="M45.9264 25.0115C45.9264 26.7823 45.6764 28.4698 45.2806 30.1157C45.1139 30.1365 44.9889 30.1157 44.8222 30.1573C42.0514 31.074 39.2181 31.7615 36.3639 32.2823C36.9056 27.449 36.9056 22.574 36.3639 17.7407C39.2181 18.2615 42.0722 18.9282 44.8222 19.8657C44.9889 19.9073 45.1139 19.9282 45.2806 19.9282C45.6764 21.574 45.9264 23.2615 45.9264 25.0115Z" fill="black"/>
<path d="M32.3638 36.2823C31.843 39.1573 31.1763 41.9907 30.2388 44.7407C30.1971 44.9073 30.1971 45.0323 30.1763 45.199C28.5513 45.5948 26.843 45.8448 25.093 45.8448C23.3221 45.8448 21.6346 45.5948 19.9888 45.199C19.968 45.0323 19.9888 44.9073 19.9471 44.7407C19.0305 41.9698 18.343 39.1573 17.8221 36.2823C20.2388 36.5532 22.6555 36.7407 25.093 36.7407C27.5305 36.7407 29.968 36.5532 32.3638 36.2823Z" fill="black"/>
<path d="M32.9332 32.8518C27.7226 33.5092 22.4633 33.5092 17.2527 32.8518C16.5953 27.6412 16.5953 22.3819 17.2527 17.1712C22.4633 16.5138 27.7226 16.5138 32.9332 17.1712C33.5907 22.3819 33.5907 27.6412 32.9332 32.8518Z" fill="black"/>
</svg>
