<svg width="60" height="60" viewBox="0 0 60 60" fill="none" xmlns="http://www.w3.org/2000/svg">
<path d="M55 52.6049H5C3.975 52.6049 3.125 53.4353 3.125 54.4368C3.125 55.4382 3.975 56.2687 5 56.2687H55C56.025 56.2687 56.875 55.4382 56.875 54.4368C56.875 53.4353 56.025 52.6049 55 52.6049Z" fill="#FC5750"/>
<path opacity="0.4" d="M42.5 5.5862H17.5C10 5.5862 7.5 9.95833 7.5 15.3563V54.4368H52.5V15.3563C52.5 9.95833 50 5.5862 42.5 5.5862Z" fill="#FC5750"/>
<path d="M35.15 37.3391H24.8249C23.5499 37.3391 22.475 38.3649 22.475 39.6351V54.4368H37.475V39.6351C37.5 38.3649 36.45 37.3391 35.15 37.3391Z" fill="#FC5750"/>
<path d="M36.25 19.6307H31.875V15.3563C31.875 14.3549 31.025 13.5244 30 13.5244C28.975 13.5244 28.125 14.3549 28.125 15.3563V19.6307H23.75C22.725 19.6307 21.875 20.4612 21.875 21.4626C21.875 22.4641 22.725 23.2945 23.75 23.2945H28.125V27.569C28.125 28.5704 28.975 29.4009 30 29.4009C31.025 29.4009 31.875 28.5704 31.875 27.569V23.2945H36.25C37.275 23.2945 38.125 22.4641 38.125 21.4626C38.125 20.4612 37.275 19.6307 36.25 19.6307Z" fill="#FC5750"/>
</svg>
