<svg width="53" height="24" viewBox="0 0 53 24" fill="none" xmlns="http://www.w3.org/2000/svg">
<g filter="url(#filter0_b_586_11)">
<path d="M0 5C0 2.23858 2.23858 0 5 0H48C50.7614 0 53 2.23858 53 5V19C53 21.7614 50.7614 24 48 24H5C2.23858 24 0 21.7614 0 19V5Z" fill="#3D4754" fill-opacity="0.5"/>
</g>
<path opacity="0.4" d="M24.62 8.7C23.58 4.07 19.54 2 16 2C16 2 16 2 15.99 2C12.46 2 8.42999 4.07 7.37999 8.69C6.19999 13.85 9.35999 18.22 12.22 20.98C13.28 22 14.64 22.51 16 22.51C17.36 22.51 18.72 22 19.77 20.98C22.63 18.22 25.79 13.86 24.62 8.7Z" fill="#33FF00"/>
<path d="M14.7499 13.7499C14.5599 13.7499 14.3699 13.6799 14.2199 13.5299L12.7199 12.0299C12.4299 11.7399 12.4299 11.2599 12.7199 10.9699C13.0099 10.6799 13.4899 10.6799 13.7799 10.9699L14.7499 11.9399L18.2199 8.46994C18.5099 8.17994 18.9899 8.17994 19.2799 8.46994C19.5699 8.75994 19.5699 9.23994 19.2799 9.52994L15.2799 13.5299C15.1299 13.6799 14.9399 13.7499 14.7499 13.7499Z" fill="#33FF00"/>
<path d="M30.5739 10V4.18182H31.6278V9.11648H34.1903V10H30.5739ZM35.0597 10V5.63636H36.0881V10H35.0597ZM35.5767 5.01705C35.4138 5.01705 35.2737 4.96307 35.1562 4.85511C35.0388 4.74526 34.9801 4.61364 34.9801 4.46023C34.9801 4.30492 35.0388 4.1733 35.1562 4.06534C35.2737 3.95549 35.4138 3.90057 35.5767 3.90057C35.7415 3.90057 35.8816 3.95549 35.9972 4.06534C36.1146 4.1733 36.1733 4.30492 36.1733 4.46023C36.1733 4.61364 36.1146 4.74526 35.9972 4.85511C35.8816 4.96307 35.7415 5.01705 35.5767 5.01705ZM41.0433 5.63636L39.4893 10H38.353L36.799 5.63636H37.8956L38.8984 8.87784H38.9439L39.9496 5.63636H41.0433ZM43.5384 10.0852C43.1009 10.0852 42.723 9.99432 42.4048 9.8125C42.0885 9.62879 41.8452 9.36932 41.6747 9.03409C41.5043 8.69697 41.419 8.30019 41.419 7.84375C41.419 7.39489 41.5043 7.00095 41.6747 6.66193C41.8471 6.32102 42.0876 6.05587 42.3963 5.86648C42.705 5.67519 43.0677 5.57955 43.4844 5.57955C43.7533 5.57955 44.0071 5.62311 44.2457 5.71023C44.4863 5.79545 44.6984 5.92803 44.8821 6.10795C45.0677 6.28788 45.2135 6.51705 45.3196 6.79545C45.4257 7.07197 45.4787 7.40152 45.4787 7.78409V8.09943H41.902V7.40625H44.4929C44.491 7.20928 44.4484 7.03409 44.3651 6.88068C44.2817 6.72538 44.1652 6.60322 44.0156 6.5142C43.8679 6.42519 43.6955 6.38068 43.4986 6.38068C43.2884 6.38068 43.1037 6.43182 42.9446 6.53409C42.7855 6.63447 42.6615 6.76705 42.5724 6.93182C42.4853 7.0947 42.4408 7.27367 42.4389 7.46875V8.07386C42.4389 8.32765 42.4853 8.54545 42.5781 8.72727C42.6709 8.9072 42.8007 9.04545 42.9673 9.14205C43.134 9.23674 43.3291 9.28409 43.5526 9.28409C43.7022 9.28409 43.8376 9.26326 43.9588 9.22159C44.08 9.17803 44.1851 9.11458 44.2741 9.03125C44.3632 8.94792 44.4304 8.8447 44.4759 8.72159L45.4361 8.82955C45.3755 9.08333 45.2599 9.30492 45.0895 9.49432C44.9209 9.68182 44.705 9.82765 44.4418 9.93182C44.1785 10.0341 43.8774 10.0852 43.5384 10.0852ZM35.7727 17.0909C35.7727 17.7178 35.6553 18.2547 35.4205 18.7017C35.1875 19.1468 34.8693 19.4877 34.4659 19.7244C34.0644 19.9612 33.6089 20.0795 33.0994 20.0795C32.59 20.0795 32.1335 19.9612 31.7301 19.7244C31.3286 19.4858 31.0104 19.1439 30.7756 18.6989C30.5426 18.2519 30.4261 17.7159 30.4261 17.0909C30.4261 16.464 30.5426 15.928 30.7756 15.483C31.0104 15.036 31.3286 14.6941 31.7301 14.4574C32.1335 14.2206 32.59 14.1023 33.0994 14.1023C33.6089 14.1023 34.0644 14.2206 34.4659 14.4574C34.8693 14.6941 35.1875 15.036 35.4205 15.483C35.6553 15.928 35.7727 16.464 35.7727 17.0909ZM34.7131 17.0909C34.7131 16.6496 34.6439 16.2775 34.5057 15.9744C34.3693 15.6695 34.1799 15.4394 33.9375 15.2841C33.6951 15.1269 33.4157 15.0483 33.0994 15.0483C32.7831 15.0483 32.5038 15.1269 32.2614 15.2841C32.0189 15.4394 31.8286 15.6695 31.6903 15.9744C31.554 16.2775 31.4858 16.6496 31.4858 17.0909C31.4858 17.5322 31.554 17.9053 31.6903 18.2102C31.8286 18.5133 32.0189 18.7434 32.2614 18.9006C32.5038 19.0559 32.7831 19.1335 33.0994 19.1335C33.4157 19.1335 33.6951 19.0559 33.9375 18.9006C34.1799 18.7434 34.3693 18.5133 34.5057 18.2102C34.6439 17.9053 34.7131 17.5322 34.7131 17.0909ZM37.7521 17.4432V20H36.7237V15.6364H37.7067V16.3778H37.7578C37.8582 16.1335 38.0182 15.9394 38.2379 15.7955C38.4595 15.6515 38.7332 15.5795 39.0589 15.5795C39.3601 15.5795 39.6224 15.6439 39.8459 15.7727C40.0713 15.9015 40.2455 16.0881 40.3686 16.3324C40.4936 16.5767 40.5552 16.8731 40.5533 17.2216V20H39.5249V17.3807C39.5249 17.089 39.4491 16.8608 39.2976 16.696C39.148 16.5312 38.9406 16.4489 38.6754 16.4489C38.4955 16.4489 38.3355 16.4886 38.1953 16.5682C38.0571 16.6458 37.9482 16.7585 37.8686 16.9062C37.791 17.054 37.7521 17.233 37.7521 17.4432Z" fill="black"/>
<defs>
<filter id="filter0_b_586_11" x="-20" y="-20" width="93" height="64" filterUnits="userSpaceOnUse" color-interpolation-filters="sRGB">
<feFlood flood-opacity="0" result="BackgroundImageFix"/>
<feGaussianBlur in="BackgroundImageFix" stdDeviation="10"/>
<feComposite in2="SourceAlpha" operator="in" result="effect1_backgroundBlur_586_11"/>
<feBlend mode="normal" in="SourceGraphic" in2="effect1_backgroundBlur_586_11" result="shape"/>
</filter>
</defs>
</svg>
