<svg width="55" height="56" viewBox="0 0 55 56" fill="none" xmlns="http://www.w3.org/2000/svg">
<path opacity="0.4" d="M19.6167 8.13712V40.9767C18.8375 40.9996 18.0583 41.183 17.4854 41.5267L12.1 44.5975C8.34168 46.7517 5.24792 44.9642 5.24792 40.61V18.3121C5.24792 16.8684 6.27917 15.0809 7.56251 14.3475L17.4854 8.6642C18.0583 8.34337 18.8375 8.16004 19.6167 8.13712Z" fill="#3D4754"/>
<path d="M36.0479 14.9892V47.8288C35.2459 47.8517 34.4667 47.7142 33.848 47.4163L21.8167 41.3892C21.1979 41.0913 20.4188 40.9538 19.6167 40.9767V8.13712C20.4188 8.1142 21.1979 8.2517 21.8167 8.54962L33.848 14.5767C34.4667 14.8746 35.2459 15.0121 36.0479 14.9892Z" fill="#3D4754"/>
<path opacity="0.4" d="M50.4167 15.3559V37.6538C50.4167 39.0975 49.3855 40.885 48.1021 41.6184L38.1792 47.3017C37.6063 47.6225 36.8271 47.8059 36.048 47.8288V14.9892C36.8271 14.9663 37.6063 14.783 38.1792 14.4392L43.5646 11.3684C47.323 9.2142 50.4167 11.0017 50.4167 15.3559Z" fill="#3D4754"/>
</svg>
