<svg width="50" height="50" viewBox="0 0 50 50" fill="none" xmlns="http://www.w3.org/2000/svg">
<path d="M20.8333 18.9167V13.0208C19.9791 13.0208 19.2708 12.3125 19.2708 11.4583V6.77083H14.5833C5.39579 6.77083 2.60413 9.5625 2.60413 18.75V19.7917C2.60413 20.6458 3.31246 21.3542 4.16663 21.3542C6.16663 21.3542 7.81246 23 7.81246 25C7.81246 27 6.16663 28.6458 4.16663 28.6458C3.31246 28.6458 2.60413 29.3542 2.60413 30.2083V31.25C2.60413 40.4375 5.39579 43.2292 14.5833 43.2292H19.2708V38.5417C19.2708 37.6875 19.9791 36.9792 20.8333 36.9792V31.0833C19.9791 31.0833 19.2708 30.375 19.2708 29.5208V20.4792C19.2708 19.625 19.9791 18.9167 20.8333 18.9167Z" fill="#006BFF"/>
<path opacity="0.4" d="M42.1875 26.0417C42.1875 28.0417 43.8334 29.6875 45.8334 29.6875C46.6875 29.6875 47.3959 30.3958 47.3959 31.25C47.3959 40.4375 44.6042 43.2292 35.4167 43.2292H22.3959V38.5417C22.3959 37.6875 21.6875 36.9792 20.8334 36.9792V31.0833C21.6875 31.0833 22.3959 30.375 22.3959 29.5208V20.4792C22.3959 19.625 21.6875 18.9167 20.8334 18.9167V13.0208C21.6875 13.0208 22.3959 12.3125 22.3959 11.4583V6.77083H35.4167C44.6042 6.77083 47.3959 9.5625 47.3959 18.75V20.8333C47.3959 21.6875 46.6875 22.3958 45.8334 22.3958C43.8334 22.3958 42.1875 24.0417 42.1875 26.0417Z" fill="#006BFF"/>
</svg>
