<svg width="24" height="24" viewBox="0 0 24 24" fill="none" xmlns="http://www.w3.org/2000/svg">
<path opacity="0.4" d="M10.49 2.23006L5.50003 4.10007C4.35003 4.53007 3.41003 5.89006 3.41003 7.12006V14.5501C3.41003 15.7301 4.19005 17.2801 5.14005 17.9901L9.44003 21.2001C10.85 22.2601 13.17 22.2601 14.58 21.2001L18.88 17.9901C19.83 17.2801 20.61 15.7301 20.61 14.5501V7.12006C20.61 5.89006 19.67 4.53007 18.52 4.10007L13.53 2.23006C12.68 1.92006 11.32 1.92006 10.49 2.23006Z" fill="#006BFF"/>
<path d="M11.9 11.3C11.92 11.3 11.94 11.3 11.96 11.3H11.98H12C13.15 11.26 14.05 10.33 14.06 9.17003C14.06 7.99003 13.1 7.03003 11.92 7.03003C10.74 7.03003 9.78003 7.99003 9.78003 9.17003C9.80003 10.32 10.7 11.26 11.9 11.3Z" fill="#006BFF"/>
<path d="M14.19 13.4101C12.98 12.6101 11.02 12.6101 9.80002 13.4101C9.24002 13.7901 8.91003 14.3301 8.91003 14.8901C8.91003 15.4601 9.23002 15.9801 9.80002 16.3601C10.41 16.7601 11.2 16.9701 11.99 16.9701C12.78 16.9701 13.58 16.7701 14.18 16.3601C14.74 15.9801 15.07 15.4401 15.07 14.8801C15.08 14.3101 14.76 13.7901 14.19 13.4101Z" fill="#006BFF"/>
</svg>
