<svg width="24" height="24" viewBox="0 0 24 24" fill="none" xmlns="http://www.w3.org/2000/svg">
<path opacity="0.4" d="M12.0015 22.01C17.5243 22.01 22.0015 17.5329 22.0015 12.01C22.0015 6.48716 17.5243 2.01001 12.0015 2.01001C6.47862 2.01001 2.00146 6.48716 2.00146 12.01C2.00146 17.5329 6.47862 22.01 12.0015 22.01Z" fill="#FFBE17"/>
<path d="M12.0015 6.93994C9.93146 6.93994 8.25146 8.61994 8.25146 10.6899C8.25146 12.7199 9.84146 14.3699 11.9515 14.4299C11.9815 14.4299 12.0215 14.4299 12.0415 14.4299C12.0615 14.4299 12.0915 14.4299 12.1115 14.4299C12.1215 14.4299 12.1315 14.4299 12.1315 14.4299C14.1515 14.3599 15.7415 12.7199 15.7515 10.6899C15.7515 8.61994 14.0715 6.93994 12.0015 6.93994Z" fill="#FFBE17"/>
<path d="M18.7817 19.36C17.0017 21 14.6217 22.01 12.0017 22.01C9.38168 22.01 7.00168 21 5.22168 19.36C5.46168 18.45 6.11168 17.62 7.06168 16.98C9.79168 15.16 14.2317 15.16 16.9417 16.98C17.9017 17.62 18.5417 18.45 18.7817 19.36Z" fill="#FFBE17"/>
</svg>
