<svg width="60" height="60" viewBox="0 0 60 60" fill="none" xmlns="http://www.w3.org/2000/svg">
<path opacity="0.7" d="M51.425 27.5934C49.525 25.3707 47.025 23.8808 44.175 23.2701C43.55 20.4612 42.4 18.0187 40.775 16.0158C40.725 15.9425 40.675 15.8693 40.625 15.8204C35.15 9.34771 26.175 9.37213 20.125 12.7184C14.95 15.6006 10.55 21.6825 12.85 30.4023C7.54998 31.6724 5.09998 36.1911 5.09998 40.2701C5.09998 44.8377 8.14998 49.9914 14.975 50.4555H40.725C40.75 50.4555 40.8 50.4555 40.825 50.4555C44.375 50.4555 47.75 49.1853 50.35 46.8405C56.65 41.467 55.825 32.6494 51.425 27.5934Z" fill="white"/>
<path d="M53.175 22.0977C53.175 24.5891 52 26.8362 50.1 28.3017C48.725 29.4009 46.95 30.0603 45.025 30.0603C40.55 30.0603 36.9 26.4943 36.9 22.1221C36.9 19.9483 37.8 17.9698 39.3 16.5287V16.5043C40.775 15.0632 42.8 14.1595 45.025 14.1595C49.525 14.1595 53.175 17.7256 53.175 22.0977Z" fill="#FFB900"/>
</svg>
